<?xml version="1.0" encoding="utf-8"?>
<!-- Generator: Adobe Illustrator 13.0.0, SVG Export Plug-In . SVG Version: 6.00 Build 14948)  -->
<!DOCTYPE svg PUBLIC "-//W3C//DTD SVG 1.1//EN" "http://www.w3.org/Graphics/SVG/1.1/DTD/svg11.dtd">
<svg version="1.1" id="Layer_1" xmlns="http://www.w3.org/2000/svg" xmlns:xlink="http://www.w3.org/1999/xlink" x="0px" y="0px"
	 width="529.533px" height="121.853px" viewBox="0 0 529.533 121.853" enable-background="new 0 0 529.533 121.853"
	 xml:space="preserve">
<g>
	<defs>
		<path id="SVGID_1_" d="M49.049,48.796l-0.786-8.783c-0.039-0.418,0.132-0.619,0.398-0.47l22.323,12.565
			c0.305,0.172,0.544,0.627,0.556,1.061l0.259,9.067L49.049,48.796z M39.821,35.506l3.176,28.676
			c0.728,6.563,4.876,14.183,9.37,17.258l29.169,19.971V89.89c0,0.15-0.004,0.069-0.005-0.004L51.374,70.214
			c-0.245-0.16-0.457-0.547-0.487-0.901l-0.7-7.813l31.349,19.682L81.53,65.274l0.006,0.741V59.59v-4.239V43.037l-13.769-7.169
			l-1.387-0.723l-14.837-7.727l-4.145-2.16l-0.004-0.001h-0.001l-9.241-4.814L39.821,35.506z"/>
	</defs>
	<clipPath id="SVGID_2_">
		<use xlink:href="#SVGID_1_"  overflow="visible"/>
	</clipPath>
	
		<linearGradient id="SVGID_3_" gradientUnits="userSpaceOnUse" x1="-137.3379" y1="352.3042" x2="-136.3376" y2="352.3042" gradientTransform="matrix(38.835 -27.4247 -27.4247 -38.835 15039.6035 9987.2969)">
		<stop  offset="0" style="stop-color:#FF7F00"/>
		<stop  offset="1" style="stop-color:#FF0000"/>
	</linearGradient>
	<polygon clip-path="url(#SVGID_2_)" fill="url(#SVGID_3_)" points="0,47.385 67.1,0 119.688,74.468 52.588,121.853 	"/>
</g>
<g>
	<defs>
		<path id="SVGID_4_" d="M47.913,49.51l-0.841-9.391c-0.063-0.7,0.182-1.13,0.4-1.367l0.5-0.454H48.5l0.473,0.051l22.598,12.719
			c0.672,0.38,1.139,1.209,1.164,2.067l0.32,11.23L47.913,49.51z M44.185,64.05c0.682,6.17,4.657,13.531,8.855,16.405l27.303,18.69
			v-8.609L50.726,71.219c-0.561-0.363-0.964-1.068-1.029-1.799l-0.914-10.21L80.34,79.021l0.003-35.259L39.585,22.538L44.185,64.05z
			"/>
	</defs>
	<clipPath id="SVGID_5_">
		<use xlink:href="#SVGID_4_"  overflow="visible"/>
	</clipPath>
	
		<linearGradient id="SVGID_6_" gradientUnits="userSpaceOnUse" x1="-137.3521" y1="352.2837" x2="-136.3521" y2="352.2837" gradientTransform="matrix(36.691 -25.9106 -25.9106 -36.691 14212.7148 9438.0117)">
		<stop  offset="0" style="stop-color:#FF0000"/>
		<stop  offset="1" style="stop-color:#FF7F00"/>
	</linearGradient>
	<polygon clip-path="url(#SVGID_5_)" fill="url(#SVGID_6_)" points="3.487,48.029 66.78,3.333 116.441,73.655 53.147,118.351 	"/>
</g>
<g>
	<defs>
		<path id="SVGID_7_" d="M74.609,13.154l6.112-2.614c0.279-0.119,0.696-0.119,0.975,0l23.214,9.97
			c0.316,0.137,0.346,0.34,0.068,0.476l-6.094,2.988L74.609,13.154z M71.85,6.72l-22.529,9.175l-11.169,4.547l9.238,4.813
			l0.003,0.001l0.005,0.001l4.145,2.16l14.837,7.727l1.387,0.723l13.769,7.169l0.299,0.158l10.737-5.594l-11.036-5.414
			L58.067,20.679c-0.277-0.136-0.246-0.339,0.071-0.473l6.673-2.857l16.725,7.874l18.277,8.607l2.004-1.042l12.329-6.425
			l1.503-0.783h0.001l0.621-0.323c0,0,0.005-0.001,0.011-0.002l8.65-4.508l-13.227-5.402L90.596,6.72
			c-2.606-1.064-5.985-1.596-9.366-1.596C77.849,5.125,74.465,5.656,71.85,6.72"/>
	</defs>
	<clipPath id="SVGID_8_">
		<use xlink:href="#SVGID_7_"  overflow="visible"/>
	</clipPath>
	
		<linearGradient id="SVGID_9_" gradientUnits="userSpaceOnUse" x1="-137.6416" y1="352.6567" x2="-136.6416" y2="352.6567" gradientTransform="matrix(0 -37.5701 -37.5701 0 13330.8887 -5126.1089)">
		<stop  offset="0" style="stop-color:#33A02F"/>
		<stop  offset="1" style="stop-color:#F0F849"/>
	</linearGradient>
	<rect x="38.152" y="5.125" clip-path="url(#SVGID_8_)" fill="url(#SVGID_9_)" width="86.78" height="38.07"/>
</g>
<g>
	<defs>
		<path id="SVGID_10_" d="M71.625,13.133l8.624-3.691c0.285-0.121,0.618-0.185,0.961-0.185c0.341,0,0.674,0.064,0.958,0.185
			l23.216,9.972c0.599,0.258,0.965,0.754,0.977,1.325c0.013,0.559-0.309,1.053-0.858,1.319l-6.596,3.234L71.625,13.133z
			 M72.301,7.826L40.993,20.575l40.842,21.271l8.09-4.215L57.539,21.75c-0.551-0.273-0.868-0.766-0.854-1.323
			c0.014-0.57,0.383-1.063,0.982-1.319l7.166-3.068l34.953,16.457l22.309-11.617L90.146,7.826c-2.384-0.974-5.548-1.508-8.916-1.508
			C77.864,6.318,74.691,6.853,72.301,7.826"/>
	</defs>
	<clipPath id="SVGID_11_">
		<use xlink:href="#SVGID_10_"  overflow="visible"/>
	</clipPath>
	
		<linearGradient id="SVGID_12_" gradientUnits="userSpaceOnUse" x1="-137.6812" y1="352.6567" x2="-136.6812" y2="352.6567" gradientTransform="matrix(0 -35.0605 -35.0605 0 12445.8633 -4783.5332)">
		<stop  offset="0" style="stop-color:#F0F849"/>
		<stop  offset="1" style="stop-color:#33A02F"/>
	</linearGradient>
	<rect x="40.993" y="6.318" clip-path="url(#SVGID_11_)" fill="url(#SVGID_12_)" width="81.102" height="35.528"/>
</g>
<g>
	<defs>
		<path id="SVGID_13_" d="M51.543,27.417l-4.145-2.16L51.543,27.417z"/>
	</defs>
	<clipPath id="SVGID_14_">
		<use xlink:href="#SVGID_13_"  overflow="visible"/>
	</clipPath>
	
		<linearGradient id="SVGID_15_" gradientUnits="userSpaceOnUse" x1="-137.3408" y1="352.3042" x2="-136.3358" y2="352.3042" gradientTransform="matrix(38.8121 -27.4085 -27.4085 -38.8121 15011.0176 9953.4531)">
		<stop  offset="0" style="stop-color:#FF0000"/>
		<stop  offset="1" style="stop-color:#FF7F00"/>
	</linearGradient>
	<polygon clip-path="url(#SVGID_14_)" fill="url(#SVGID_15_)" points="46.38,25.976 50.164,23.304 52.561,26.699 48.777,29.371 	"/>
</g>
<g>
	<defs>
		<path id="SVGID_16_" d="M51.543,27.417l-4.145-2.16L51.543,27.417z"/>
	</defs>
	<clipPath id="SVGID_17_">
		<use xlink:href="#SVGID_16_"  overflow="visible"/>
	</clipPath>
	
		<linearGradient id="SVGID_18_" gradientUnits="userSpaceOnUse" x1="-137.6455" y1="352.6567" x2="-136.637" y2="352.6567" gradientTransform="matrix(0 -37.5941 -37.5941 0 13307.2754 -5129.3911)">
		<stop  offset="0" style="stop-color:#A8D613"/>
		<stop  offset="1" style="stop-color:#33A02F"/>
	</linearGradient>
	<rect x="47.398" y="25.257" clip-path="url(#SVGID_17_)" fill="url(#SVGID_18_)" width="4.145" height="2.16"/>
</g>
<g>
	<defs>
		<polygon id="SVGID_19_" points="47.39,25.255 47.393,25.256 38.152,20.442 		"/>
	</defs>
	<clipPath id="SVGID_20_">
		<use xlink:href="#SVGID_19_"  overflow="visible"/>
	</clipPath>
	
		<linearGradient id="SVGID_21_" gradientUnits="userSpaceOnUse" x1="-137.3364" y1="352.3052" x2="-136.3387" y2="352.3052" gradientTransform="matrix(38.8352 -27.4247 -27.4247 -38.8352 15016.0234 9953.8926)">
		<stop  offset="0" style="stop-color:#FF0000"/>
		<stop  offset="1" style="stop-color:#FF7F00"/>
	</linearGradient>
	<polygon clip-path="url(#SVGID_20_)" fill="url(#SVGID_21_)" points="35.883,22.044 44.318,16.088 49.661,23.654 41.227,29.611 	
		"/>
</g>
<g>
	<defs>
		<polygon id="SVGID_22_" points="47.39,25.255 47.393,25.256 38.152,20.442 		"/>
	</defs>
	<clipPath id="SVGID_23_">
		<use xlink:href="#SVGID_22_"  overflow="visible"/>
	</clipPath>
	
		<linearGradient id="SVGID_24_" gradientUnits="userSpaceOnUse" x1="-137.6416" y1="352.6567" x2="-136.6416" y2="352.6567" gradientTransform="matrix(0 -37.5773 -37.5773 0 13294.6738 -5127.1021)">
		<stop  offset="0" style="stop-color:#A8D613"/>
		<stop  offset="1" style="stop-color:#33A02F"/>
	</linearGradient>
	<rect x="38.152" y="20.442" clip-path="url(#SVGID_23_)" fill="url(#SVGID_24_)" width="9.241" height="4.814"/>
</g>
<g>
	<defs>
		<path id="SVGID_25_" d="M92.129,53.169c0.014-0.434,0.251-0.889,0.555-1.061l22.323-12.565c0.268-0.149,0.44,0.052,0.403,0.47
			l-0.789,8.783l-22.749,13.44L92.129,53.169z M115.649,25.581L115.649,25.581l-13.832,7.208l-2.004,1.042l-6.683,3.481
			c-0.185,0.095-0.365,0.215-0.546,0.323l-0.012-0.034l-10.737,5.594l-0.299-0.158v12.315v4.239v6.425v15.167v8.708v11.521
			l11.079-7.173l26.756-18.32l1.232-11.12L91.742,83.624c-0.279,0.183-0.48,0.047-0.471-0.314l0.228-8.005l30.029-18.854
			l2.089-18.849l1.875-16.623l-0.56-0.23L115.649,25.581z"/>
	</defs>
	<clipPath id="SVGID_26_">
		<use xlink:href="#SVGID_25_"  overflow="visible"/>
	</clipPath>
	
		<linearGradient id="SVGID_27_" gradientUnits="userSpaceOnUse" x1="-137.4941" y1="352.9292" x2="-136.4941" y2="352.9292" gradientTransform="matrix(-24.0217 -35.4317 -35.4317 24.0217 9314.3809 -13275.4941)">
		<stop  offset="0" style="stop-color:#9ED2E5"/>
		<stop  offset="1" style="stop-color:#00A0C6"/>
	</linearGradient>
	<polygon clip-path="url(#SVGID_26_)" fill="url(#SVGID_27_)" points="95.378,121.827 44.07,46.148 111.65,0.331 162.958,76.009 	
		"/>
</g>
<g>
	<defs>
		<path id="SVGID_28_" d="M90.936,53.133c0.025-0.859,0.493-1.689,1.164-2.065l22.322-12.565l0.435-0.205h0.314l0.672,0.066
			l0.356,0.388c0.216,0.237,0.461,0.667,0.399,1.367l-0.842,9.391L90.618,64.366L90.936,53.133z M93.678,38.373
			c-0.093,0.048-0.473,0.284-0.473,0.284l-1.295,0.727l-0.027-0.077l-9.153,4.767v55.141l9.209-5.963l26.306-18.011l0.893-8.063
			L92.396,84.624c-0.276,0.181-0.58,0.273-0.881,0.273l-0.656-0.06l-0.35-0.365c-0.206-0.211-0.449-0.591-0.43-1.196l0.245-8.643
			l30.08-18.888l2.025-18.279l1.687-14.947L93.678,38.373z"/>
	</defs>
	<clipPath id="SVGID_29_">
		<use xlink:href="#SVGID_28_"  overflow="visible"/>
	</clipPath>
	
		<linearGradient id="SVGID_30_" gradientUnits="userSpaceOnUse" x1="-137.5181" y1="352.9458" x2="-136.5181" y2="352.9458" gradientTransform="matrix(-22.6759 -33.4466 -33.4466 22.6759 8798.4082 -12529.5098)">
		<stop  offset="0" style="stop-color:#00A0C6"/>
		<stop  offset="1" style="stop-color:#83CFD1"/>
	</linearGradient>
	<polygon clip-path="url(#SVGID_29_)" fill="url(#SVGID_30_)" points="95.762,118.437 47.107,46.671 111.083,3.296 159.739,75.063 	
		"/>
</g>
<g>
	<defs>
		<path id="SVGID_31_" d="M160.329,51.498c3.626,0,5.439,1.796,5.439,5.389v0.198h-11.076
			C154.988,53.36,156.868,51.498,160.329,51.498 M148.142,59.038c0,8.852,4.706,13.273,14.116,13.273c3.28,0,6.062-0.244,8.356-0.74
			v-5.191c-2.623,0.495-5.242,0.742-7.863,0.742c-5.373,0-8.059-1.83-8.059-5.488h17.231c0.15-1.07,0.223-2.141,0.223-3.213
			c0-8.045-3.94-12.066-11.817-12.066C152.204,46.354,148.142,50.583,148.142,59.038"/>
	</defs>
	<clipPath id="SVGID_32_">
		<use xlink:href="#SVGID_31_"  overflow="visible"/>
	</clipPath>
	
		<linearGradient id="SVGID_33_" gradientUnits="userSpaceOnUse" x1="-137.8887" y1="352.6548" x2="-136.8887" y2="352.6548" gradientTransform="matrix(0 -25.9565 -25.9565 0 9313.832 -3506.8008)">
		<stop  offset="0" style="stop-color:#FF7F00"/>
		<stop  offset="1" style="stop-color:#FF0000"/>
	</linearGradient>
	<rect x="148.142" y="46.354" clip-path="url(#SVGID_32_)" fill="url(#SVGID_33_)" width="24.004" height="25.957"/>
</g>
<g>
	<defs>
		<path id="SVGID_34_" d="M153.842,57.018c0.333-4.167,2.576-6.372,6.487-6.372c4.115,0,6.288,2.158,6.288,6.438v0.852h-12.844
			L153.842,57.018z M148.99,59.038c0,8.361,4.34,12.425,13.268,12.425c2.89,0,5.41-0.197,7.507-0.589v-3.479
			c-2.333,0.381-4.686,0.575-7.014,0.575c-7.364,0-8.911-3.444-8.911-6.337v-0.85h17.33c0.085-0.787,0.127-1.578,0.127-2.363
			c0-7.547-3.589-11.216-10.968-11.216C152.7,47.205,148.99,51.075,148.99,59.038"/>
	</defs>
	<clipPath id="SVGID_35_">
		<use xlink:href="#SVGID_34_"  overflow="visible"/>
	</clipPath>
	
		<linearGradient id="SVGID_36_" gradientUnits="userSpaceOnUse" x1="-137.9438" y1="352.6538" x2="-136.9438" y2="352.6538" gradientTransform="matrix(0 -24.2583 -24.2583 0 8714.9219 -3274.834)">
		<stop  offset="0" style="stop-color:#FF0000"/>
		<stop  offset="1" style="stop-color:#FF7F00"/>
	</linearGradient>
	<rect x="148.99" y="47.205" clip-path="url(#SVGID_35_)" fill="url(#SVGID_36_)" width="22.307" height="24.258"/>
</g>
<g>
	<defs>
		<path id="SVGID_37_" d="M175.83,47.59c0,6.595,3.617,9.891,10.851,9.891h5.539c3.327,0,4.993,1.318,4.993,3.955
			c0,3.627-2.709,5.438-8.134,5.438c-4.467,0-8.47-0.659-12.016-1.978v5.935c3.546,1.153,7.549,1.729,12.016,1.729
			c9.792,0,14.686-3.709,14.686-11.125c0-6.594-3.849-9.89-11.545-9.89h-5.539c-2.867,0-4.302-1.319-4.302-3.956
			c0-3.461,2.969-5.192,8.9-5.192c3.957,0,7.707,0.661,11.251,1.981v-5.936c-3.544-1.152-7.294-1.73-11.251-1.73
			C180.979,36.713,175.83,40.339,175.83,47.59"/>
	</defs>
	<clipPath id="SVGID_38_">
		<use xlink:href="#SVGID_37_"  overflow="visible"/>
	</clipPath>
	
		<linearGradient id="SVGID_39_" gradientUnits="userSpaceOnUse" x1="-137.668" y1="352.6567" x2="-136.668" y2="352.6567" gradientTransform="matrix(0 -35.8472 -35.8472 0 12831.5293 -4862.4443)">
		<stop  offset="0" style="stop-color:#83CFD1"/>
		<stop  offset="1" style="stop-color:#00A0C6"/>
	</linearGradient>
	<rect x="175.83" y="36.713" clip-path="url(#SVGID_38_)" fill="url(#SVGID_39_)" width="27.935" height="35.848"/>
</g>
<g>
	<defs>
		<path id="SVGID_40_" d="M176.68,47.59c0,6.084,3.273,9.041,10.001,9.041h5.539c4.831,0,5.846,2.611,5.846,4.805
			c0,2.869-1.559,6.288-8.987,6.288c-4.072,0-7.823-0.548-11.164-1.632v4.115c3.3,0.998,7.05,1.504,11.164,1.504
			c9.31,0,13.837-3.363,13.837-10.275c0-6.083-3.499-9.039-10.696-9.039h-5.539c-3.32,0-5.15-1.707-5.15-4.807
			c0-4.009,3.278-6.041,9.748-6.041c3.614,0,7.107,0.548,10.401,1.63v-4.111c-3.274-1-6.77-1.505-10.401-1.505
			C181.456,37.563,176.68,40.844,176.68,47.59"/>
	</defs>
	<clipPath id="SVGID_41_">
		<use xlink:href="#SVGID_40_"  overflow="visible"/>
	</clipPath>
	
		<linearGradient id="SVGID_42_" gradientUnits="userSpaceOnUse" x1="-137.6968" y1="352.6567" x2="-136.6968" y2="352.6567" gradientTransform="matrix(0 -34.1479 -34.1479 0 12232.2832 -4630.3491)">
		<stop  offset="0" style="stop-color:#00A0C6"/>
		<stop  offset="1" style="stop-color:#83CFD1"/>
	</linearGradient>
	<rect x="176.68" y="37.563" clip-path="url(#SVGID_41_)" fill="url(#SVGID_42_)" width="26.236" height="34.148"/>
</g>
<g>
	<defs>
		<path id="SVGID_43_" d="M215.262,65.541V51.991c1.237-0.231,2.785-0.346,4.646-0.346c4.318,0,6.477,2.331,6.477,6.996
			c0,5.488-1.95,8.233-5.856,8.233C218.65,66.875,216.894,66.429,215.262,65.541 M208.71,47.417v34.292h6.552V71.077
			c1.776,0.826,3.544,1.234,5.288,1.234c8.211,0,12.314-4.537,12.314-13.619c0-8.225-4.41-12.337-13.226-12.337
			C215.796,46.354,212.156,46.708,208.71,47.417"/>
	</defs>
	<clipPath id="SVGID_44_">
		<use xlink:href="#SVGID_43_"  overflow="visible"/>
	</clipPath>
	
		<linearGradient id="SVGID_45_" gradientUnits="userSpaceOnUse" x1="-137.6763" y1="352.6558" x2="-136.6763" y2="352.6558" gradientTransform="matrix(0 -35.353 -35.353 0 12688.2617 -4785.5732)">
		<stop  offset="0" style="stop-color:#83CFD1"/>
		<stop  offset="1" style="stop-color:#00A0C6"/>
	</linearGradient>
	<rect x="208.71" y="46.354" clip-path="url(#SVGID_44_)" fill="url(#SVGID_45_)" width="24.154" height="35.354"/>
</g>
<g>
	<defs>
		<path id="SVGID_46_" d="M214.856,66.287l-0.446-0.24V51.284l0.697-0.128c1.286-0.241,2.902-0.36,4.801-0.36
			c4.797,0,7.328,2.712,7.328,7.845c0,7.51-3.648,9.083-6.707,9.083C218.514,67.724,216.605,67.241,214.856,66.287 M209.559,48.116
			v32.742h4.851V69.746l1.21,0.56c1.653,0.768,3.314,1.157,4.93,1.157c7.714,0,11.463-4.177,11.463-12.771
			c0-7.729-4.049-11.487-12.375-11.487C216.124,47.205,212.738,47.512,209.559,48.116"/>
	</defs>
	<clipPath id="SVGID_47_">
		<use xlink:href="#SVGID_46_"  overflow="visible"/>
	</clipPath>
	
		<linearGradient id="SVGID_48_" gradientUnits="userSpaceOnUse" x1="-137.7061" y1="352.6548" x2="-136.7061" y2="352.6548" gradientTransform="matrix(0 -33.6533 -33.6533 0 12088.832 -4553.3989)">
		<stop  offset="0" style="stop-color:#00A0C6"/>
		<stop  offset="1" style="stop-color:#83CFD1"/>
	</linearGradient>
	<rect x="209.559" y="47.205" clip-path="url(#SVGID_47_)" fill="url(#SVGID_48_)" width="22.454" height="33.653"/>
</g>
<g>
	<defs>
		<path id="SVGID_49_" d="M243.125,59.237c0-5.292,2.1-7.938,6.303-7.938s6.304,2.647,6.304,7.938c0,5.422-2.101,8.134-6.304,8.134
			S243.125,64.659,243.125,59.237 M236.572,59.334c0.033,8.686,4.319,13.027,12.856,13.027c8.569,0,12.857-4.342,12.857-13.027
			c0-8.701-4.288-13.054-12.857-13.054C240.86,46.28,236.572,50.633,236.572,59.334"/>
	</defs>
	<clipPath id="SVGID_50_">
		<use xlink:href="#SVGID_49_"  overflow="visible"/>
	</clipPath>
	
		<linearGradient id="SVGID_51_" gradientUnits="userSpaceOnUse" x1="-137.8848" y1="352.6548" x2="-136.8848" y2="352.6548" gradientTransform="matrix(0 -26.082 -26.082 0 9447.375 -3523.9541)">
		<stop  offset="0" style="stop-color:#83CFD1"/>
		<stop  offset="1" style="stop-color:#00A0C6"/>
	</linearGradient>
	<rect x="236.572" y="46.28" clip-path="url(#SVGID_50_)" fill="url(#SVGID_51_)" width="25.713" height="26.082"/>
</g>
<g>
	<defs>
		<path id="SVGID_52_" d="M242.274,59.237c0-7.265,3.888-8.789,7.154-8.789c3.264,0,7.155,1.524,7.155,8.789
			c0,7.425-3.891,8.982-7.155,8.982C246.162,68.219,242.274,66.662,242.274,59.237 M237.423,59.332
			c0.032,8.196,3.96,12.18,12.005,12.18c8.079,0,12.008-3.983,12.008-12.177c0-8.212-3.929-12.202-12.008-12.202
			C241.35,47.132,237.423,51.123,237.423,59.332"/>
	</defs>
	<clipPath id="SVGID_53_">
		<use xlink:href="#SVGID_52_"  overflow="visible"/>
	</clipPath>
	
		<linearGradient id="SVGID_54_" gradientUnits="userSpaceOnUse" x1="-137.9404" y1="352.6538" x2="-136.9404" y2="352.6538" gradientTransform="matrix(0 -24.3799 -24.3799 0 8847.0898 -3291.4597)">
		<stop  offset="0" style="stop-color:#00A0C6"/>
		<stop  offset="1" style="stop-color:#83CFD1"/>
	</linearGradient>
	<rect x="237.423" y="47.132" clip-path="url(#SVGID_53_)" fill="url(#SVGID_54_)" width="24.013" height="24.379"/>
</g>
<g>
	<defs>
		<path id="SVGID_55_" d="M273.111,49.668l-0.814-3.314h-5.07v25.957h6.55V54.686c1.93-2.025,4.113-3.04,6.554-3.04v-5.291
			C277.792,46.354,275.386,47.458,273.111,49.668"/>
	</defs>
	<clipPath id="SVGID_56_">
		<use xlink:href="#SVGID_55_"  overflow="visible"/>
	</clipPath>
	
		<linearGradient id="SVGID_57_" gradientUnits="userSpaceOnUse" x1="-137.8887" y1="352.6548" x2="-136.8887" y2="352.6548" gradientTransform="matrix(0 -25.9565 -25.9565 0 9427.457 -3506.8008)">
		<stop  offset="0" style="stop-color:#83CFD1"/>
		<stop  offset="1" style="stop-color:#00A0C6"/>
	</linearGradient>
	<rect x="267.227" y="46.354" clip-path="url(#SVGID_56_)" fill="url(#SVGID_57_)" width="13.104" height="25.957"/>
</g>
<g>
	<defs>
		<path id="SVGID_58_" d="M268.076,47.205v24.258h4.852V54.344l0.234-0.245c1.862-1.957,3.985-3.052,6.32-3.267v-3.58
			c-2,0.225-3.938,1.239-5.778,3.026l-1.066,1.033l-1.008-4.107H268.076z"/>
	</defs>
	<clipPath id="SVGID_59_">
		<use xlink:href="#SVGID_58_"  overflow="visible"/>
	</clipPath>
	
		<linearGradient id="SVGID_60_" gradientUnits="userSpaceOnUse" x1="-137.9438" y1="352.6538" x2="-136.9438" y2="352.6538" gradientTransform="matrix(0 -24.2583 -24.2583 0 8828.5469 -3274.834)">
		<stop  offset="0" style="stop-color:#00A0C6"/>
		<stop  offset="1" style="stop-color:#83CFD1"/>
	</linearGradient>
	<rect x="268.076" y="47.205" clip-path="url(#SVGID_59_)" fill="url(#SVGID_60_)" width="11.406" height="24.258"/>
</g>
<g>
	<defs>
		<path id="SVGID_61_" d="M283.669,42.151v23.164c0,4.666,2.174,6.996,6.526,6.996h5.834v-5.189h-2.669
			c-2.094,0-3.14-1.213-3.14-3.635v-11.94h5.809v-5.192h-6.523l-0.99-4.203H283.669z"/>
	</defs>
	<clipPath id="SVGID_62_">
		<use xlink:href="#SVGID_61_"  overflow="visible"/>
	</clipPath>
	
		<linearGradient id="SVGID_63_" gradientUnits="userSpaceOnUse" x1="-137.7769" y1="352.6558" x2="-136.7769" y2="352.6558" gradientTransform="matrix(0 -30.1602 -30.1602 0 10926.002 -4083.0728)">
		<stop  offset="0" style="stop-color:#83CFD1"/>
		<stop  offset="1" style="stop-color:#00A0C6"/>
	</linearGradient>
	<rect x="283.669" y="42.151" clip-path="url(#SVGID_62_)" fill="url(#SVGID_63_)" width="12.36" height="30.16"/>
</g>
<g>
	<defs>
		<path id="SVGID_64_" d="M284.519,43.003v22.312c0,4.194,1.803,6.147,5.676,6.147h4.985V67.97h-1.82
			c-1.493,0-3.989-0.581-3.989-4.483v-12.79h5.81v-3.493h-6.351l-0.989-4.201H284.519z"/>
	</defs>
	<clipPath id="SVGID_65_">
		<use xlink:href="#SVGID_64_"  overflow="visible"/>
	</clipPath>
	
		<linearGradient id="SVGID_66_" gradientUnits="userSpaceOnUse" x1="-137.8179" y1="352.6548" x2="-136.8179" y2="352.6548" gradientTransform="matrix(0 -28.4595 -28.4595 0 10326.2207 -3850.77)">
		<stop  offset="0" style="stop-color:#00A0C6"/>
		<stop  offset="1" style="stop-color:#83CFD1"/>
	</linearGradient>
	<rect x="284.519" y="43.003" clip-path="url(#SVGID_65_)" fill="url(#SVGID_66_)" width="10.661" height="28.459"/>
</g>
<g>
	<defs>
		<path id="SVGID_67_" d="M299.243,54.265c0,5.191,2.637,7.788,7.911,7.788h4.699c1.895,0,2.842,0.863,2.842,2.596
			c0,1.814-1.411,2.722-4.227,2.722c-3.774,0-7.104-0.578-9.989-1.733v5.439c2.886,0.99,6.132,1.484,9.74,1.484
			c7.352,0,11.027-2.721,11.027-8.158c0-5.192-2.884-7.789-8.65-7.789h-4.204c-2.061,0-3.091-0.865-3.091-2.594
			c0-1.814,1.771-2.721,5.312-2.721c3.381,0,6.513,0.578,9.396,1.732v-5.44c-2.884-0.989-5.953-1.481-9.221-1.481
			C303.09,46.109,299.243,48.826,299.243,54.265"/>
	</defs>
	<clipPath id="SVGID_68_">
		<use xlink:href="#SVGID_67_"  overflow="visible"/>
	</clipPath>
	
		<linearGradient id="SVGID_69_" gradientUnits="userSpaceOnUse" x1="-137.8735" y1="352.6548" x2="-136.8735" y2="352.6548" gradientTransform="matrix(0 -26.4507 -26.4507 0 9638.1934 -3574.2966)">
		<stop  offset="0" style="stop-color:#83CFD1"/>
		<stop  offset="1" style="stop-color:#00A0C6"/>
	</linearGradient>
	<rect x="299.243" y="46.109" clip-path="url(#SVGID_68_)" fill="url(#SVGID_69_)" width="22.004" height="26.452"/>
</g>
<g>
	<defs>
		<path id="SVGID_70_" d="M300.093,54.265c0,4.733,2.247,6.937,7.061,6.937h4.699c2.348,0,3.692,1.258,3.692,3.447
			c0,1.631-0.882,3.57-5.077,3.57c-3.369,0-6.44-0.457-9.141-1.365v3.608c2.644,0.827,5.629,1.249,8.892,1.249
			c6.85,0,10.179-2.393,10.179-7.309c0-4.732-2.48-6.938-7.802-6.938h-4.204c-3.43,0-3.939-2.162-3.939-3.446
			c0-2.369,2.07-3.571,6.16-3.571c3.023,0,5.892,0.459,8.548,1.359v-3.6c-2.62-0.829-5.436-1.249-8.372-1.249
			C303.592,46.958,300.093,49.349,300.093,54.265"/>
	</defs>
	<clipPath id="SVGID_71_">
		<use xlink:href="#SVGID_70_"  overflow="visible"/>
	</clipPath>
	
		<linearGradient id="SVGID_72_" gradientUnits="userSpaceOnUse" x1="-137.9277" y1="352.6538" x2="-136.9277" y2="352.6538" gradientTransform="matrix(0 -24.7524 -24.7524 0 9039.2832 -3342.3296)">
		<stop  offset="0" style="stop-color:#00A0C6"/>
		<stop  offset="1" style="stop-color:#83CFD1"/>
	</linearGradient>
	<rect x="300.093" y="46.958" clip-path="url(#SVGID_71_)" fill="url(#SVGID_72_)" width="20.305" height="24.753"/>
</g>
<g>
	<defs>
		<polygon id="SVGID_73_" points="326.439,36.96 326.439,72.311 350.986,72.311 350.986,66.629 332.867,66.629 332.867,57.356 
			349.8,57.356 349.8,51.498 332.939,51.498 332.939,42.598 350.643,42.598 350.643,36.96 		"/>
	</defs>
	<clipPath id="SVGID_74_">
		<use xlink:href="#SVGID_73_"  overflow="visible"/>
	</clipPath>
	
		<linearGradient id="SVGID_75_" gradientUnits="userSpaceOnUse" x1="-137.6768" y1="352.6567" x2="-136.6768" y2="352.6567" gradientTransform="matrix(0 -35.3516 -35.3516 0 12805.6777 -4794.772)">
		<stop  offset="0" style="stop-color:#FF7F00"/>
		<stop  offset="1" style="stop-color:#FF0000"/>
	</linearGradient>
	<rect x="326.439" y="36.96" clip-path="url(#SVGID_74_)" fill="url(#SVGID_75_)" width="24.547" height="35.351"/>
</g>
<g>
	<defs>
		<polygon id="SVGID_76_" points="327.288,37.812 327.288,71.462 350.138,71.462 350.138,67.477 332.015,67.477 332.015,56.504 
			348.951,56.504 348.951,52.346 332.09,52.346 332.09,41.748 349.787,41.748 349.787,37.812 		"/>
	</defs>
	<clipPath id="SVGID_77_">
		<use xlink:href="#SVGID_76_"  overflow="visible"/>
	</clipPath>
	
		<linearGradient id="SVGID_78_" gradientUnits="userSpaceOnUse" x1="-137.7061" y1="352.6567" x2="-136.7061" y2="352.6567" gradientTransform="matrix(0 -33.6519 -33.6519 0 12206.25 -4562.5977)">
		<stop  offset="0" style="stop-color:#FF0000"/>
		<stop  offset="1" style="stop-color:#FF7F00"/>
	</linearGradient>
	<rect x="327.288" y="37.812" clip-path="url(#SVGID_77_)" fill="url(#SVGID_78_)" width="22.851" height="33.651"/>
</g>
<g>
	<defs>
		<polygon id="SVGID_79_" points="373.115,46.354 366.561,64.501 360.262,46.354 353.335,46.354 363.249,72.311 369.481,72.311 
			380.035,46.354 		"/>
	</defs>
	<clipPath id="SVGID_80_">
		<use xlink:href="#SVGID_79_"  overflow="visible"/>
	</clipPath>
	
		<linearGradient id="SVGID_81_" gradientUnits="userSpaceOnUse" x1="-137.8887" y1="352.6538" x2="-136.8887" y2="352.6538" gradientTransform="matrix(0 -25.9565 -25.9565 0 9520.3633 -3506.8008)">
		<stop  offset="0" style="stop-color:#FF7F00"/>
		<stop  offset="1" style="stop-color:#FF0000"/>
	</linearGradient>
	<rect x="353.335" y="46.354" clip-path="url(#SVGID_80_)" fill="url(#SVGID_81_)" width="26.699" height="25.957"/>
</g>
<g>
	<defs>
		<polygon id="SVGID_82_" points="373.712,47.205 366.544,67.046 359.655,47.205 354.572,47.205 363.833,71.462 368.909,71.462 
			378.772,47.205 		"/>
	</defs>
	<clipPath id="SVGID_83_">
		<use xlink:href="#SVGID_82_"  overflow="visible"/>
	</clipPath>
	
		<linearGradient id="SVGID_84_" gradientUnits="userSpaceOnUse" x1="-137.9438" y1="352.6538" x2="-136.9438" y2="352.6538" gradientTransform="matrix(0 -24.2583 -24.2583 0 8921.4531 -3274.834)">
		<stop  offset="0" style="stop-color:#FF0000"/>
		<stop  offset="1" style="stop-color:#FF7F00"/>
	</linearGradient>
	<rect x="354.572" y="47.205" clip-path="url(#SVGID_83_)" fill="url(#SVGID_84_)" width="24.2" height="24.258"/>
</g>
<g>
	<defs>
		<path id="SVGID_85_" d="M394.077,51.498c3.626,0,5.439,1.796,5.439,5.389v0.198H388.44
			C388.735,53.36,390.617,51.498,394.077,51.498 M381.891,59.038c0,8.852,4.704,13.273,14.118,13.273
			c3.276,0,6.062-0.244,8.355-0.74v-5.191c-2.623,0.495-5.245,0.742-7.865,0.742c-5.374,0-8.06-1.83-8.06-5.488h17.234
			c0.146-1.07,0.223-2.141,0.223-3.213c0-8.045-3.94-12.066-11.82-12.066C385.95,46.354,381.891,50.583,381.891,59.038"/>
	</defs>
	<clipPath id="SVGID_86_">
		<use xlink:href="#SVGID_85_"  overflow="visible"/>
	</clipPath>
	
		<linearGradient id="SVGID_87_" gradientUnits="userSpaceOnUse" x1="-137.8887" y1="352.6548" x2="-136.8887" y2="352.6548" gradientTransform="matrix(0 -25.9565 -25.9565 0 9547.582 -3506.8008)">
		<stop  offset="0" style="stop-color:#FF7F00"/>
		<stop  offset="1" style="stop-color:#FF0000"/>
	</linearGradient>
	<rect x="381.891" y="46.354" clip-path="url(#SVGID_86_)" fill="url(#SVGID_87_)" width="24.006" height="25.957"/>
</g>
<g>
	<defs>
		<path id="SVGID_88_" d="M387.594,57.018c0.33-4.167,2.574-6.372,6.482-6.372c4.116,0,6.29,2.158,6.29,6.438v0.852h-12.846
			L387.594,57.018z M382.74,59.038c0,8.361,4.338,12.425,13.27,12.425c2.888,0,5.409-0.197,7.507-0.589v-3.479
			c-2.336,0.381-4.688,0.575-7.017,0.575c-7.363,0-8.909-3.444-8.909-6.337v-0.85h17.328c0.084-0.787,0.128-1.578,0.128-2.363
			c0-7.547-3.592-11.216-10.97-11.216C386.452,47.205,382.74,51.075,382.74,59.038"/>
	</defs>
	<clipPath id="SVGID_89_">
		<use xlink:href="#SVGID_88_"  overflow="visible"/>
	</clipPath>
	
		<linearGradient id="SVGID_90_" gradientUnits="userSpaceOnUse" x1="-137.9438" y1="352.6538" x2="-136.9438" y2="352.6538" gradientTransform="matrix(0 -24.2583 -24.2583 0 8948.6719 -3274.834)">
		<stop  offset="0" style="stop-color:#FF0000"/>
		<stop  offset="1" style="stop-color:#FF7F00"/>
	</linearGradient>
	<rect x="382.74" y="47.205" clip-path="url(#SVGID_89_)" fill="url(#SVGID_90_)" width="22.307" height="24.258"/>
</g>
<g>
	<defs>
		<path id="SVGID_91_" d="M416.702,50.164l-0.818-3.809h-5.068v25.957h6.552V54.193c2.026-1.701,4.104-2.548,6.23-2.548
			c2.853,0,4.275,1.435,4.275,4.301v16.365h6.555V55.946c0-6.391-3.075-9.592-9.226-9.592
			C422.023,46.354,419.189,47.625,416.702,50.164"/>
	</defs>
	<clipPath id="SVGID_92_">
		<use xlink:href="#SVGID_91_"  overflow="visible"/>
	</clipPath>
	
		<linearGradient id="SVGID_93_" gradientUnits="userSpaceOnUse" x1="-137.8887" y1="352.6548" x2="-136.8887" y2="352.6548" gradientTransform="matrix(0 -25.9565 -25.9565 0 9576.3008 -3506.8008)">
		<stop  offset="0" style="stop-color:#FF7F00"/>
		<stop  offset="1" style="stop-color:#FF0000"/>
	</linearGradient>
	<rect x="410.815" y="46.354" clip-path="url(#SVGID_92_)" fill="url(#SVGID_93_)" width="23.612" height="25.957"/>
</g>
<g>
	<defs>
		<path id="SVGID_94_" d="M417.309,50.758l-1.111,1.131l-0.998-4.685h-3.537v24.258h4.854V53.795l0.304-0.254
			c2.174-1.823,4.457-2.745,6.776-2.745c3.308,0,5.129,1.828,5.129,5.15v15.516h4.85V55.946c0-5.964-2.662-8.742-8.374-8.742
			C422.236,47.205,419.652,48.368,417.309,50.758"/>
	</defs>
	<clipPath id="SVGID_95_">
		<use xlink:href="#SVGID_94_"  overflow="visible"/>
	</clipPath>
	
		<linearGradient id="SVGID_96_" gradientUnits="userSpaceOnUse" x1="-137.9438" y1="352.6548" x2="-136.9438" y2="352.6548" gradientTransform="matrix(0 -24.2583 -24.2583 0 8977.3906 -3274.834)">
		<stop  offset="0" style="stop-color:#FF0000"/>
		<stop  offset="1" style="stop-color:#FF7F00"/>
	</linearGradient>
	<rect x="411.663" y="47.205" clip-path="url(#SVGID_95_)" fill="url(#SVGID_96_)" width="21.913" height="24.258"/>
</g>
<g>
	<defs>
		<path id="SVGID_97_" d="M440.236,42.151v23.164c0,4.666,2.175,6.996,6.526,6.996h5.834v-5.189h-2.668
			c-2.096,0-3.143-1.213-3.143-3.635v-11.94h5.811v-5.192h-6.525l-0.99-4.203H440.236z"/>
	</defs>
	<clipPath id="SVGID_98_">
		<use xlink:href="#SVGID_97_"  overflow="visible"/>
	</clipPath>
	
		<linearGradient id="SVGID_99_" gradientUnits="userSpaceOnUse" x1="-137.7769" y1="352.6558" x2="-136.7769" y2="352.6558" gradientTransform="matrix(0 -30.1602 -30.1602 0 11082.5645 -4083.0728)">
		<stop  offset="0" style="stop-color:#FF7F00"/>
		<stop  offset="1" style="stop-color:#FF0000"/>
	</linearGradient>
	<rect x="440.236" y="42.151" clip-path="url(#SVGID_98_)" fill="url(#SVGID_99_)" width="12.36" height="30.16"/>
</g>
<g>
	<defs>
		<path id="SVGID_100_" d="M441.084,43.003v22.312c0,4.194,1.805,6.147,5.678,6.147h4.985V67.97h-1.819
			c-1.491,0-3.992-0.581-3.992-4.483v-12.79h5.812v-3.493h-6.35l-0.989-4.201H441.084z"/>
	</defs>
	<clipPath id="SVGID_101_">
		<use xlink:href="#SVGID_100_"  overflow="visible"/>
	</clipPath>
	
		<linearGradient id="SVGID_102_" gradientUnits="userSpaceOnUse" x1="-137.8179" y1="352.6548" x2="-136.8179" y2="352.6548" gradientTransform="matrix(0 -28.4595 -28.4595 0 10482.7988 -3850.77)">
		<stop  offset="0" style="stop-color:#FF0000"/>
		<stop  offset="1" style="stop-color:#FF7F00"/>
	</linearGradient>
	<rect x="441.084" y="43.003" clip-path="url(#SVGID_101_)" fill="url(#SVGID_102_)" width="10.663" height="28.459"/>
</g>
<g>
	<defs>
		<path id="SVGID_103_" d="M455.809,54.265c0,5.191,2.635,7.788,7.91,7.788h4.701c1.895,0,2.842,0.863,2.842,2.596
			c0,1.814-1.41,2.722-4.229,2.722c-3.771,0-7.103-0.578-9.986-1.733v5.439c2.884,0.99,6.13,1.484,9.737,1.484
			c7.352,0,11.033-2.721,11.033-8.158c0-5.192-2.89-7.789-8.656-7.789h-4.204c-2.061,0-3.091-0.865-3.091-2.594
			c0-1.814,1.771-2.721,5.314-2.721c3.381,0,6.51,0.578,9.396,1.732v-5.44c-2.887-0.989-5.956-1.481-9.223-1.481
			C459.66,46.109,455.809,48.826,455.809,54.265"/>
	</defs>
	<clipPath id="SVGID_104_">
		<use xlink:href="#SVGID_103_"  overflow="visible"/>
	</clipPath>
	
		<linearGradient id="SVGID_105_" gradientUnits="userSpaceOnUse" x1="-137.8735" y1="352.6538" x2="-136.8735" y2="352.6538" gradientTransform="matrix(0 -26.4507 -26.4507 0 9794.7559 -3574.2966)">
		<stop  offset="0" style="stop-color:#FF7F00"/>
		<stop  offset="1" style="stop-color:#FF0000"/>
	</linearGradient>
	<rect x="455.809" y="46.109" clip-path="url(#SVGID_104_)" fill="url(#SVGID_105_)" width="22.008" height="26.452"/>
</g>
<g>
	<defs>
		<path id="SVGID_106_" d="M456.658,54.265c0,4.733,2.247,6.937,7.062,6.937h4.701c2.345,0,3.691,1.258,3.691,3.447
			c0,1.631-0.881,3.57-5.079,3.57c-3.37,0-6.439-0.457-9.138-1.365v3.608c2.641,0.827,5.628,1.249,8.889,1.249
			c6.851,0,10.179-2.393,10.179-7.309c0-4.732-2.479-6.938-7.802-6.938h-4.204c-3.427,0-3.938-2.162-3.938-3.446
			c0-2.369,2.069-3.571,6.162-3.571c3.023,0,5.892,0.459,8.545,1.359v-3.6c-2.619-0.829-5.434-1.249-8.371-1.249
			C460.158,46.958,456.658,49.349,456.658,54.265"/>
	</defs>
	<clipPath id="SVGID_107_">
		<use xlink:href="#SVGID_106_"  overflow="visible"/>
	</clipPath>
	
		<linearGradient id="SVGID_108_" gradientUnits="userSpaceOnUse" x1="-137.9277" y1="352.6538" x2="-136.9277" y2="352.6538" gradientTransform="matrix(0 -24.7524 -24.7524 0 9195.8457 -3342.3296)">
		<stop  offset="0" style="stop-color:#FF0000"/>
		<stop  offset="1" style="stop-color:#FF7F00"/>
	</linearGradient>
	<rect x="456.658" y="46.958" clip-path="url(#SVGID_107_)" fill="url(#SVGID_108_)" width="20.305" height="24.753"/>
</g>
<g>
	<defs>
		<rect id="SVGID_109_" x="481.766" y="66.256" width="6.555" height="6.055"/>
	</defs>
	<clipPath id="SVGID_110_">
		<use xlink:href="#SVGID_109_"  overflow="visible"/>
	</clipPath>
	
		<linearGradient id="SVGID_111_" gradientUnits="userSpaceOnUse" x1="-140.5112" y1="352.6235" x2="-139.5117" y2="352.6235" gradientTransform="matrix(0 -6.0557 -6.0557 0 2620.4104 -778.5778)">
		<stop  offset="0" style="stop-color:#83CFD1"/>
		<stop  offset="1" style="stop-color:#00A0C6"/>
	</linearGradient>
	<rect x="481.766" y="66.256" clip-path="url(#SVGID_110_)" fill="url(#SVGID_111_)" width="6.555" height="6.055"/>
</g>
<g>
	<defs>
		<rect id="SVGID_112_" x="482.621" y="67.106" width="4.851" height="4.356"/>
	</defs>
	<clipPath id="SVGID_113_">
		<use xlink:href="#SVGID_112_"  overflow="visible"/>
	</clipPath>
	
		<linearGradient id="SVGID_114_" gradientUnits="userSpaceOnUse" x1="-141.8462" y1="352.6079" x2="-140.8462" y2="352.6079" gradientTransform="matrix(0 -4.3564 -4.3564 0 2021.1616 -546.4829)">
		<stop  offset="0" style="stop-color:#00A0C6"/>
		<stop  offset="1" style="stop-color:#83CFD1"/>
	</linearGradient>
	<rect x="482.621" y="67.106" clip-path="url(#SVGID_113_)" fill="url(#SVGID_114_)" width="4.851" height="4.356"/>
</g>
<g>
	<defs>
		<path id="SVGID_115_" d="M500.435,65.541V51.991c1.236-0.231,2.783-0.346,4.648-0.346c4.315,0,6.479,2.331,6.479,6.996
			c0,5.488-1.956,8.233-5.862,8.233C503.821,66.875,502.066,66.429,500.435,65.541 M493.881,47.417v34.292h6.554V71.077
			c1.777,0.826,3.544,1.234,5.291,1.234c8.206,0,12.311-4.537,12.311-13.619c0-8.225-4.408-12.337-13.227-12.337
			C500.971,46.354,497.329,46.708,493.881,47.417"/>
	</defs>
	<clipPath id="SVGID_116_">
		<use xlink:href="#SVGID_115_"  overflow="visible"/>
	</clipPath>
	
		<linearGradient id="SVGID_117_" gradientUnits="userSpaceOnUse" x1="-137.6763" y1="352.6567" x2="-136.6763" y2="352.6567" gradientTransform="matrix(0 -35.353 -35.353 0 12973.4492 -4785.5732)">
		<stop  offset="0" style="stop-color:#83CFD1"/>
		<stop  offset="1" style="stop-color:#00A0C6"/>
	</linearGradient>
	<rect x="493.881" y="46.354" clip-path="url(#SVGID_116_)" fill="url(#SVGID_117_)" width="24.155" height="35.354"/>
</g>
<g>
	<defs>
		<path id="SVGID_118_" d="M500.026,66.287l-0.44-0.24V51.284l0.694-0.128c1.284-0.241,2.904-0.36,4.804-0.36
			c4.792,0,7.325,2.712,7.325,7.845c0,7.51-3.646,9.083-6.709,9.083C503.687,67.724,501.776,67.241,500.026,66.287 M494.73,48.116
			v32.742h4.855V69.746l1.206,0.56c1.657,0.768,3.314,1.157,4.935,1.157c7.709,0,11.462-4.177,11.462-12.771
			c0-7.729-4.051-11.487-12.378-11.487C501.296,47.205,497.914,47.512,494.73,48.116"/>
	</defs>
	<clipPath id="SVGID_119_">
		<use xlink:href="#SVGID_118_"  overflow="visible"/>
	</clipPath>
	
		<linearGradient id="SVGID_120_" gradientUnits="userSpaceOnUse" x1="-137.7061" y1="352.6567" x2="-136.7061" y2="352.6567" gradientTransform="matrix(0 -33.6533 -33.6533 0 12374.0195 -4553.3989)">
		<stop  offset="0" style="stop-color:#00A0C6"/>
		<stop  offset="1" style="stop-color:#83CFD1"/>
	</linearGradient>
	<rect x="494.73" y="47.205" clip-path="url(#SVGID_119_)" fill="url(#SVGID_120_)" width="22.458" height="33.653"/>
</g>
<g>
	<defs>
		<rect id="SVGID_121_" x="522.981" y="36.96" width="6.552" height="35.351"/>
	</defs>
	<clipPath id="SVGID_122_">
		<use xlink:href="#SVGID_121_"  overflow="visible"/>
	</clipPath>
	
		<linearGradient id="SVGID_123_" gradientUnits="userSpaceOnUse" x1="-137.6768" y1="352.6567" x2="-136.6768" y2="352.6567" gradientTransform="matrix(0 -35.3516 -35.3516 0 12993.2109 -4794.772)">
		<stop  offset="0" style="stop-color:#83CFD1"/>
		<stop  offset="1" style="stop-color:#00A0C6"/>
	</linearGradient>
	<rect x="522.981" y="36.96" clip-path="url(#SVGID_122_)" fill="url(#SVGID_123_)" width="6.552" height="35.351"/>
</g>
<g>
	<defs>
		<rect id="SVGID_124_" x="523.83" y="37.811" width="4.854" height="33.652"/>
	</defs>
	<clipPath id="SVGID_125_">
		<use xlink:href="#SVGID_124_"  overflow="visible"/>
	</clipPath>
	
		<linearGradient id="SVGID_126_" gradientUnits="userSpaceOnUse" x1="-137.7061" y1="352.6567" x2="-136.7061" y2="352.6567" gradientTransform="matrix(0 -33.6519 -33.6519 0 12393.8125 -4562.5977)">
		<stop  offset="0" style="stop-color:#00A0C6"/>
		<stop  offset="1" style="stop-color:#83CFD1"/>
	</linearGradient>
	<rect x="523.83" y="37.811" clip-path="url(#SVGID_125_)" fill="url(#SVGID_126_)" width="4.854" height="33.652"/>
</g>
</svg>
